<svg xmlns="http://www.w3.org/2000/svg" viewBox="0 0 64 64" role="img" aria-label="CROPXON Logo">
  <defs>
    <linearGradient id="leafGrad" x1="0" y1="0" x2="0" y2="1">
      <stop offset="0%" stop-color="#8bd54f"/>
      <stop offset="100%" stop-color="#5ead33"/>
    </linearGradient>
  </defs>
  <rect width="64" height="64" fill="#0b1a15"/>
  <path
    d="M32 5 L48 14 L48 33 L32 42 L16 33 L16 14 Z"
    fill="none"
    stroke="#2f3746"
    stroke-width="2.8"
    stroke-linejoin="round"
  />
  <path
    d="M32 14 C26 20 24 26 25 33 C26 39 29 42 32 43 C35 42 38 39 39 33 C40 26 38 20 32 14 Z"
    fill="url(#leafGrad)"
  />
  <path d="M32 16 L32 45" stroke="#223041" stroke-width="1.8" stroke-linecap="round"/>
  <path d="M16 33 C24 35 26 37 32 43 C38 37 40 35 48 33" fill="none" stroke="#2f3746" stroke-width="2.4" stroke-linecap="round"/>
</svg>
